<svg width="29" height="28" viewBox="0 0 29 28" fill="none" xmlns="http://www.w3.org/2000/svg">
<path d="M2.05892 4.42427L5.67779 0.808738C5.93307 0.552333 6.2365 0.348892 6.57063 0.210104C6.90477 0.0713149 7.26304 -8.67171e-05 7.62485 7.90372e-08C8.36222 7.90372e-08 9.05541 0.288835 9.57531 0.808738L13.4694 4.70291C13.7258 4.9582 13.9293 5.26162 14.068 5.59577C14.2068 5.92991 14.2782 6.28818 14.2781 6.65C14.2781 7.38738 13.9893 8.08058 13.4694 8.60049L10.6219 11.4481C11.2884 12.9172 12.2151 14.2538 13.3573 15.3932C14.4966 16.5381 15.833 17.4682 17.3024 18.1388L20.1499 15.2913C20.4052 15.0349 20.7086 14.8314 21.0427 14.6926C21.3769 14.5538 21.7352 14.4824 22.097 14.4825C22.8343 14.4825 23.5275 14.7714 24.0474 15.2913L27.9449 19.182C28.2017 19.4378 28.4053 19.7418 28.5441 20.0765C28.6828 20.4113 28.7541 20.7701 28.7537 21.1325C28.7537 21.8699 28.4648 22.5631 27.9449 23.083L24.3329 26.6951C23.5037 27.5277 22.3586 28 21.1829 28C20.9348 28 20.697 27.9796 20.4625 27.9388C15.882 27.1845 11.3389 24.7481 7.67242 21.085C4.00937 17.4252 1.5764 12.8854 0.811848 8.29126C0.580784 6.88786 1.04631 5.44369 2.05892 4.42427Z" fill="white"/>
</svg>
