<svg width="33" height="32" viewBox="0 0 33 32" fill="none" xmlns="http://www.w3.org/2000/svg">
<g clip-path="url(#clip0_6_55)">
<path fill-rule="evenodd" clip-rule="evenodd" d="M5.44116 4.68625C8.43866 1.68675 12.5112 0 16.7537 0C20.9962 0 25.0687 1.68675 28.0662 4.68625C31.0662 7.68575 32.7537 11.7583 32.7537 16C32.7537 20.2417 31.0662 24.3142 28.0662 27.3137C25.0687 30.3132 20.9962 32 16.7537 32C12.5112 32 8.43866 30.3132 5.44116 27.3137C2.44116 24.3142 0.753662 20.2417 0.753662 16C0.754493 11.7565 2.44057 7.68694 5.44116 4.68625ZM17.3261 11.8117C15.7711 12.459 12.6611 13.7987 7.99612 15.8307C7.23862 16.132 6.84112 16.4267 6.80612 16.7147C6.74456 17.2013 7.35386 17.3931 8.18179 17.6539C8.29534 17.6896 8.41301 17.7267 8.53362 17.766C9.35112 18.0315 10.4511 18.3422 11.0211 18.3545C11.5411 18.3657 12.1186 18.152 12.7561 17.7135C17.1161 14.7717 19.3636 13.2847 19.5061 13.2527C19.6061 13.2302 19.7436 13.2017 19.8361 13.285C19.9311 13.368 19.9211 13.5255 19.9111 13.5677C19.8522 13.8247 17.4677 16.0416 16.227 17.1952C15.8369 17.5579 15.5598 17.8154 15.5036 17.874C15.378 18.0045 15.25 18.1279 15.127 18.2465C14.3683 18.9778 13.7991 19.5265 15.1586 20.4222C15.8178 20.8564 16.344 21.2148 16.8699 21.573C17.4349 21.9579 17.9996 22.3425 18.7286 22.8207C18.9161 22.9436 19.0951 23.0712 19.2695 23.1955C19.9321 23.6679 20.5274 24.0922 21.2636 24.0245C21.6911 23.9852 22.1336 23.5832 22.3561 22.3842C22.8861 19.5505 23.9286 13.411 24.1686 10.881C24.1911 10.6595 24.1636 10.3757 24.1436 10.2512C24.1211 10.1266 24.0761 9.94911 23.9161 9.81786C23.7236 9.66224 23.4286 9.62949 23.2961 9.63161C22.6936 9.64249 21.7711 9.96349 17.3261 11.8117Z" fill="white"/>
</g>
<defs>
<clipPath id="clip0_6_55">
<rect width="32" height="32" fill="white" transform="translate(0.753662)"/>
</clipPath>
</defs>
</svg>
