<svg width="32" height="32" viewBox="0 0 32 32" fill="none" xmlns="http://www.w3.org/2000/svg">
<g clip-path="url(#clip0_6_51)">
<path fill-rule="evenodd" clip-rule="evenodd" d="M0.13369 15.8035C0.132822 18.5889 0.860511 21.308 2.24395 23.7048L0.000976562 31.8942L8.38187 29.6967C10.6911 30.9558 13.291 31.6196 15.9366 31.6206H15.9434C24.6563 31.6206 31.7492 24.53 31.7529 15.8162C31.7544 11.5932 30.1112 7.62208 27.1266 4.63479C24.1415 1.64788 20.1725 0.00173643 15.9434 0C7.229 0 0.137163 7.08961 0.13369 15.8035ZM11.103 8.51439C11.3845 8.52593 11.6959 8.5392 11.9919 9.19694C12.1937 9.64564 12.5329 10.4814 12.8038 11.1488C13.0044 11.6431 13.1676 12.0451 13.2097 12.1292C13.3083 12.3267 13.3743 12.5574 13.2425 12.8211C13.2226 12.8609 13.2042 12.8983 13.1867 12.9341C13.0879 13.1357 13.0153 13.2839 12.848 13.4798C12.7818 13.5571 12.7134 13.6403 12.6449 13.7236C12.509 13.8888 12.3732 14.054 12.2552 14.1717C12.0571 14.3685 11.8513 14.5826 12.0818 14.9775C12.3122 15.3731 13.105 16.6661 14.2794 17.7132C15.541 18.8379 16.6369 19.3136 17.1935 19.5552C17.3028 19.6026 17.3913 19.6411 17.4562 19.6736C17.8511 19.8712 18.0817 19.8383 18.312 19.5742C18.5426 19.3108 19.299 18.4212 19.5625 18.0263C19.8259 17.6308 20.0892 17.6965 20.4514 17.8283C20.8134 17.9601 22.7555 18.9158 23.1507 19.1133C23.2276 19.1518 23.2995 19.1865 23.3662 19.2187C23.642 19.3518 23.8284 19.4417 23.9079 19.5742C24.0066 19.7394 24.0066 20.53 23.6773 21.4523C23.3483 22.3747 21.7354 23.2643 21.011 23.33C20.9414 23.3364 20.8722 23.3445 20.801 23.3529C20.1317 23.4317 19.287 23.5312 16.2708 22.3419C12.5606 20.8787 10.114 17.2531 9.60796 16.5032C9.56638 16.4415 9.5379 16.3993 9.52289 16.3793L9.51861 16.3736C9.30597 16.0894 7.90999 14.2238 7.90999 12.2937C7.90999 10.4748 8.80397 9.52123 9.21543 9.08234C9.24359 9.05231 9.26949 9.02468 9.29269 8.99935C9.65449 8.60431 10.0825 8.50521 10.346 8.50521C10.3631 8.50521 10.3803 8.50521 10.3975 8.50521C10.6434 8.50516 10.8876 8.50512 11.103 8.51439Z" fill="white"/>
</g>
<defs>
<clipPath id="clip0_6_51">
<rect width="31.7536" height="32" fill="white"/>
</clipPath>
</defs>
</svg>
