<svg width="64" height="64" viewBox="0 0 64 64" fill="none" xmlns="http://www.w3.org/2000/svg">
<g clip-path="url(#clip0_13_229)">
<path d="M10.6667 42.6681C8.557 42.6681 6.49471 43.2937 4.74059 44.4657C2.98646 45.6378 1.61929 47.3037 0.811956 49.2528C0.00462166 51.2019 -0.206614 53.3466 0.204962 55.4157C0.616537 57.4848 1.63244 59.3855 3.1242 60.8772C4.61596 62.369 6.51658 63.3849 8.58571 63.7965C10.6548 64.208 12.7995 63.9968 14.7486 63.1895C16.6977 62.3821 18.3636 61.015 19.5357 59.2608C20.7077 57.5067 21.3333 55.4444 21.3333 53.3348C21.3333 50.5058 20.2095 47.7927 18.2091 45.7923C16.2088 43.7919 13.4956 42.6681 10.6667 42.6681ZM10.6667 56.0014C9.95943 56.0014 9.28115 55.7205 8.78105 55.2204C8.28096 54.7203 8 54.042 8 53.3348C8 52.6275 8.28096 51.9492 8.78105 51.4491C9.28115 50.949 9.95943 50.6681 10.6667 50.6681C11.3739 50.6681 12.0522 50.949 12.5523 51.4491C13.0524 51.9492 13.3333 52.6275 13.3333 53.3348C13.3333 54.042 13.0524 54.7203 12.5523 55.2204C12.0522 55.7205 11.3739 56.0014 10.6667 56.0014Z" fill="#F9D869"/>
<path d="M56.0001 56.0014C56.0001 55.2942 56.281 54.6159 56.7811 54.1158C57.2812 53.6157 57.9595 53.3348 58.6667 53.3348H64.0001C64.0001 50.5058 62.8762 47.7927 60.8759 45.7923C58.8755 43.7919 56.1624 42.6681 53.3334 42.6681H22.5601C23.9462 44.224 25.0152 46.0357 25.7067 48.0014H29.3334C30.0406 48.0014 30.7189 48.2824 31.219 48.7825C31.7191 49.2826 32.0001 49.9608 32.0001 50.6681C32.0001 51.3753 31.7191 52.0536 31.219 52.5537C30.7189 53.0538 30.0406 53.3348 29.3334 53.3348H26.6667C26.6756 57.278 25.211 61.0823 22.5601 64.0014H53.3334C55.1994 63.9948 57.031 63.4988 58.6454 62.563C60.2598 61.6271 61.6004 60.2841 62.5334 58.6681H58.6667C57.9595 58.6681 57.2812 58.3871 56.7811 57.887C56.281 57.3869 56.0001 56.7087 56.0001 56.0014ZM48.0001 56.0014H40.0001C39.2928 56.0014 38.6145 55.7205 38.1144 55.2204C37.6143 54.7203 37.3334 54.042 37.3334 53.3348C37.3334 52.6275 37.6143 51.9492 38.1144 51.4491C38.6145 50.949 39.2928 50.6681 40.0001 50.6681H48.0001C48.7073 50.6681 49.3856 50.949 49.8857 51.4491C50.3858 51.9492 50.6667 52.6275 50.6667 53.3348C50.6667 54.042 50.3858 54.7203 49.8857 55.2204C49.3856 55.7205 48.7073 56.0014 48.0001 56.0014Z" fill="#F9D869"/>
<path d="M26.6667 34.668C26.6765 35.6071 26.9341 36.527 27.4134 37.3347H36.5867C37.0661 36.527 37.3237 35.6071 37.3334 34.668C37.3334 31.7347 34.6667 29.3347 34.6667 24.0013C34.6667 24.0013 26.6667 26.668 26.6667 34.668Z" fill="#F9D869"/>
<path d="M32.9867 18.9347C33.7886 18.6686 34.6422 18.5967 35.4773 18.7252C36.3124 18.8536 37.105 19.1786 37.7899 19.6733C38.4748 20.1681 39.0323 20.8185 39.4165 21.571C39.8008 22.3235 40.0008 23.1565 40 24.0014C40.0362 25.6997 40.4555 27.3678 41.2267 28.8814C42.0986 30.691 42.5887 32.6608 42.6667 34.668C42.666 35.5699 42.5404 36.4673 42.2933 37.3347H43.8667C46.5251 34.4182 47.999 30.6143 48 26.668C47.8348 21.9727 46.0868 17.4711 43.04 13.8947C40.56 10.4014 38.7733 8.00138 40 3.30805C40.0999 2.91447 40.1085 2.50328 40.0254 2.10584C39.9422 1.7084 39.7693 1.3352 39.52 1.01472C39.2607 0.686002 38.9276 0.422974 38.5477 0.246928C38.1678 0.0708811 37.7518 -0.0132375 37.3333 0.00138211C30.1333 0.00138211 16 12.0814 16 26.668C16.001 30.6143 17.4749 34.4182 20.1333 37.3347H21.7067C21.4596 36.4673 21.334 35.5699 21.3333 34.668C21.4073 31.1616 22.5681 27.7647 24.6556 24.9464C26.743 22.1281 29.6541 20.0275 32.9867 18.9347Z" fill="#F9D869"/>
</g>
<defs>
<clipPath id="clip0_13_229">
<rect width="64" height="64.0016" fill="white" transform="translate(0 -0.000244141)"/>
</clipPath>
</defs>
</svg>
