<svg width="32" height="48" viewBox="0 0 32 48" fill="none" xmlns="http://www.w3.org/2000/svg">
<g clip-path="url(#clip0_20_358)">
<path d="M25.6143 9.26512C25.6122 11.569 23.7415 13.4375 21.4376 13.4375H10.5626C8.25869 13.4806 6.35568 11.6466 6.31259 9.34269C6.26949 7.03665 8.10354 5.13579 10.4074 5.09271C10.9268 2.41166 13.2717 0.476318 16.0003 0.476318C18.7289 0.476318 21.0735 2.41166 21.5931 5.09271C23.8366 5.1746 25.6143 7.01943 25.6143 9.26512ZM31.8146 12.8858L31.8168 42.7004C31.8124 45.3599 29.6594 47.5151 26.9999 47.5173H4.99993C2.34046 47.5151 0.187409 45.3599 0.183105 42.7004V12.8858C0.187416 10.5324 1.88782 8.52807 4.20683 8.13795C4.14002 8.51726 4.10769 8.90302 4.10985 9.28664C4.12709 12.8427 7.0064 15.7197 10.5623 15.7352H21.4373C25.0106 15.733 27.9074 12.8386 27.9134 9.26512C27.9134 8.87934 27.8811 8.49359 27.8165 8.11428C30.1354 8.51514 31.8251 10.5324 31.8165 12.8858H31.8146ZM9.10343 40.0924C9.10559 39.4567 8.72412 38.8834 8.13792 38.6377C7.55171 38.3942 6.87711 38.5256 6.42669 38.9739C5.97625 39.4222 5.84263 40.0989 6.08402 40.6851C6.32755 41.2713 6.89869 41.655 7.53445 41.655C7.9504 41.6571 8.34912 41.4933 8.64435 41.1981C8.93745 40.905 9.10343 40.5062 9.10343 40.0924ZM9.10343 34.3446C9.10559 33.7088 8.72412 33.1355 8.13792 32.892C7.55171 32.6463 6.87711 32.7799 6.42669 33.2282C5.97625 33.6765 5.84263 34.3511 6.08402 34.9373C6.32755 35.5256 6.89869 35.9071 7.53445 35.9071C7.9504 35.9092 8.34912 35.7454 8.64435 35.4523C8.93745 35.1592 9.10343 34.7605 9.10343 34.3446ZM9.10343 28.5967C9.10559 27.9631 8.72412 27.3877 8.13792 27.1441C7.55171 26.8984 6.87711 27.0321 6.42669 27.4803C5.97625 27.9286 5.84263 28.6032 6.08402 29.1916C6.32755 29.7778 6.89869 30.1614 7.53445 30.1614C7.9504 30.1614 8.34912 29.9976 8.64435 29.7045C8.93745 29.4114 9.10343 29.0126 9.10343 28.5967ZM9.10343 22.851C9.10559 22.2152 8.72412 21.642 8.13792 21.3963C7.55171 21.1527 6.87711 21.2842 6.42669 21.7325C5.97625 22.1808 5.84263 22.8575 6.08402 23.4437C6.32755 24.0299 6.89869 24.4135 7.53445 24.4135C7.9504 24.4157 8.34912 24.2519 8.64435 23.9566C8.93745 23.6635 9.10343 23.2648 9.10343 22.851ZM26.0408 40.0924C26.0408 39.7864 25.918 39.4955 25.7024 39.2799C25.4869 39.0644 25.196 38.9415 24.8899 38.9415H11.7131C11.0773 38.9415 10.5623 39.4566 10.5623 40.0924C10.5623 40.726 11.0773 41.2411 11.7131 41.2411H24.8899C25.196 41.2411 25.4869 41.1204 25.7024 40.9049C25.918 40.6894 26.0408 40.3963 26.0408 40.0924ZM26.0408 34.3446C26.0408 34.0407 25.918 33.7476 25.7024 33.532C25.4869 33.3165 25.196 33.1958 24.8899 33.1958H11.7131C11.0773 33.1958 10.5623 33.7088 10.5623 34.3445C10.5623 34.9803 11.0773 35.4932 11.7131 35.4932H24.8899C25.196 35.4932 25.4869 35.3725 25.7024 35.157C25.918 34.9415 26.0408 34.6485 26.0408 34.3446ZM26.0408 28.5967C26.0408 28.2928 25.918 27.9997 25.7024 27.7842C25.4869 27.5687 25.196 27.448 24.8899 27.448H11.7131C11.0773 27.448 10.5623 27.9631 10.5623 28.5967C10.5623 29.2324 11.0773 29.7475 11.7131 29.7475H24.8899C25.196 29.7475 25.4869 29.6247 25.7024 29.4091C25.918 29.1936 26.0408 28.9028 26.0408 28.5967ZM26.0408 22.851C26.0408 22.545 25.918 22.254 25.7024 22.0385C25.4869 21.823 25.196 21.7001 24.8899 21.7001H11.7131C11.0773 21.7001 10.5623 22.2152 10.5623 22.851C10.5623 23.4846 11.0773 23.9996 11.7131 23.9996H24.8899C25.196 23.9996 25.4869 23.879 25.7024 23.6634C25.918 23.4479 26.0408 23.1549 26.0408 22.851Z" fill="#F9D869"/>
</g>
<defs>
<clipPath id="clip0_20_358">
<rect width="32" height="48" fill="white"/>
</clipPath>
</defs>
</svg>
