<svg width="45" height="48" viewBox="0 0 45 48" fill="none" xmlns="http://www.w3.org/2000/svg">
<g clip-path="url(#clip0_20_350)">
<path d="M41.5484 14.5479C41.2593 9.10686 37.1654 4.52474 31.5135 2.74164C31.3983 2.70598 31.2751 2.70558 31.1597 2.74051C31.0444 2.77543 30.9421 2.84408 30.866 2.93762C30.79 3.03115 30.7437 3.1453 30.7331 3.26538C30.7224 3.38546 30.748 3.50597 30.8064 3.61141C32.2294 6.18065 33.4813 9.81376 33.3715 14.5626C33.3691 14.6406 33.3823 14.7182 33.4104 14.791C33.4385 14.8638 33.4809 14.9302 33.5351 14.9863C33.5892 15.0424 33.6541 15.0871 33.7258 15.1178C33.7976 15.1484 33.8747 15.1644 33.9527 15.1647H40.9656C41.045 15.1645 41.1235 15.1482 41.1964 15.1167C41.2692 15.0852 41.3349 15.0392 41.3895 14.9815C41.444 14.9237 41.4862 14.8555 41.5135 14.781C41.5408 14.7065 41.5527 14.6271 41.5484 14.5479Z" fill="#F9D869"/>
<path d="M21.7328 3.6114C21.7913 3.50596 21.8168 3.38545 21.8062 3.26537C21.7956 3.1453 21.7492 3.03115 21.6732 2.93761C21.5972 2.84408 21.4949 2.77543 21.3795 2.74051C21.2641 2.70558 21.141 2.70598 21.0258 2.74164C15.3738 4.52469 11.2798 9.10687 10.9907 14.5479C10.9864 14.6272 10.9983 14.7065 11.0256 14.7811C11.0529 14.8556 11.0951 14.9238 11.1497 14.9815C11.2042 15.0392 11.2699 15.0852 11.3427 15.1167C11.4156 15.1482 11.4941 15.1646 11.5735 15.1648H18.5864C18.6644 15.1644 18.7415 15.1484 18.8132 15.1178C18.885 15.0872 18.9498 15.0425 19.004 14.9863C19.0582 14.9302 19.1005 14.8638 19.1286 14.7911C19.1567 14.7183 19.17 14.6406 19.1675 14.5627C19.0578 9.81381 20.3098 6.18065 21.7328 3.6114Z" fill="#F9D869"/>
<path d="M27.6473 1.90381C27.7761 1.74736 27.8477 1.55165 27.8502 1.34901C27.8502 0.719535 27.1425 0.209229 26.2695 0.209229C25.3964 0.209229 24.6887 0.719544 24.6887 1.34901C24.6913 1.55173 24.7629 1.7475 24.8918 1.90398C25.025 2.07677 25.0986 2.28811 25.1016 2.50628C25.1045 2.72444 25.0366 2.93768 24.9081 3.114C23.321 5.3159 21.4476 9.10461 21.5962 14.6046C21.6015 14.7552 21.6651 14.898 21.7738 15.0025C21.8824 15.107 22.0274 15.1652 22.1782 15.1647H24.6792V25.785C25.7161 25.4003 26.7786 25.0883 27.8589 24.8512V15.1647H30.3607C30.5115 15.1652 30.6565 15.107 30.7651 15.0025C30.8738 14.898 30.9374 14.7553 30.9427 14.6046C31.0915 9.10454 29.2181 5.31588 27.6309 3.11395C27.5024 2.93761 27.4345 2.72435 27.4375 2.50616C27.4404 2.28798 27.514 2.07663 27.6473 1.90381Z" fill="#F9D869"/>
<path d="M43.7047 32.7785C43.5582 33.1036 43.3471 33.3956 43.0843 33.6367C42.8216 33.8778 42.5125 34.063 42.176 34.1811C41.8395 34.2992 41.4825 34.3476 41.1267 34.3236C40.7709 34.2995 40.4237 34.2034 40.1061 34.041C37.4974 32.744 34.5803 32.195 31.6786 32.4548C28.7768 32.7146 26.0037 33.7732 23.6669 35.513C22.8594 36.1144 21.8795 36.4392 20.8727 36.4392C19.8659 36.4392 18.886 36.1144 18.0785 35.513L1.1934 22.8383C0.868438 22.5943 0.604699 22.2781 0.423056 21.9146C0.241413 21.5512 0.146851 21.1504 0.146851 20.7441C0.146848 20.2577 0.282314 19.7809 0.538065 19.3672C0.793815 18.9534 1.15974 18.6191 1.59482 18.4017C2.02991 18.1843 2.51695 18.0923 3.00136 18.1361C3.48577 18.18 3.9484 18.3578 4.3374 18.6498L20.877 31.065C23.9913 28.8476 27.6507 27.5203 31.4623 27.2256C35.2739 26.9309 39.0939 27.6799 42.5119 29.3923C43.1061 29.6971 43.5608 30.218 43.7826 30.8479C44.0045 31.4777 43.9766 32.1686 43.7047 32.7785Z" fill="#F9D869"/>
<path d="M43.9549 40.3159L40.2284 37.5202C38.1618 35.9817 35.6542 35.1508 33.0778 35.1508C30.5015 35.1508 27.9938 35.9817 25.9273 37.5202C24.4667 38.6082 22.694 39.1959 20.8727 39.1959C19.0515 39.1959 17.2788 38.6082 15.8182 37.5202L2.99016 27.8903C1.93331 27.0969 0.641144 27.4439 0.234232 28.7012C0.119863 29.0485 0.117231 29.4229 0.226708 29.7718C0.336184 30.1207 0.552262 30.4265 0.844559 30.6463L8.29898 36.2414C8.62447 36.4857 8.84692 36.8428 8.92268 37.2427C8.99844 37.6425 8.92205 38.0563 8.70848 38.4027L4.56193 45.1292C4.44165 45.3243 4.36098 45.5412 4.32452 45.7675C4.28807 45.9938 4.29654 46.225 4.34946 46.448C4.40238 46.6711 4.49871 46.8815 4.63295 47.0673C4.76718 47.2531 4.9367 47.4106 5.13182 47.5309C5.52588 47.7738 6.00029 47.8502 6.45069 47.7433C6.9011 47.6365 7.2906 47.3551 7.53352 46.961L11.3551 40.7617C11.4741 40.5686 11.6321 40.4025 11.819 40.2738C12.0059 40.1452 12.2175 40.057 12.4404 40.0148C12.6632 39.9725 12.8925 39.9772 13.1134 40.0286C13.3344 40.0799 13.5422 40.1768 13.7237 40.313C15.5944 41.7046 17.8304 42.5206 20.1578 42.6609C22.4852 42.8013 24.803 42.2599 26.8274 41.1032C27.1956 40.9014 27.6269 40.848 28.0332 40.9539C28.4394 41.0598 28.7898 41.317 29.0126 41.6728L32.2725 46.961C32.5154 47.355 32.9049 47.6365 33.3553 47.7433C33.8057 47.8502 34.2801 47.7738 34.6742 47.5309L34.6757 47.5299C35.0698 47.287 35.3512 46.8975 35.4581 46.4471C35.5649 45.9967 35.4885 45.5223 35.2456 45.1283L32.0717 39.9793C31.9916 39.8496 31.9467 39.7013 31.9417 39.5489C31.9366 39.3966 31.9716 39.2456 32.0429 39.1109C32.1143 38.9762 32.2197 38.8626 32.3486 38.7813C32.4775 38.6999 32.6255 38.6538 32.7778 38.6473C34.7012 38.5723 36.5921 39.1604 38.1339 40.313L41.8604 43.1086C42.2307 43.3864 42.6962 43.5056 43.1545 43.4402C43.6128 43.3747 44.0263 43.1299 44.304 42.7595C44.5818 42.3892 44.7011 41.9237 44.6356 41.4654C44.5701 41.0071 44.3253 40.5936 43.9549 40.3159Z" fill="#F9D869"/>
</g>
<defs>
<clipPath id="clip0_20_350">
<rect width="44.8" height="48" fill="white"/>
</clipPath>
</defs>
</svg>
