<svg width="54" height="33" viewBox="0 0 54 33" fill="none" xmlns="http://www.w3.org/2000/svg">
<path d="M9.28125 15.1875C12.0772 15.1875 14.3438 12.9209 14.3438 10.125C14.3438 7.32906 12.0772 5.0625 9.28125 5.0625C6.48531 5.0625 4.21875 7.32906 4.21875 10.125C4.21875 12.9209 6.48531 15.1875 9.28125 15.1875Z" fill="#F9D869"/>
<path d="M44.7188 15.1875C47.5147 15.1875 49.7812 12.9209 49.7812 10.125C49.7812 7.32906 47.5147 5.0625 44.7188 5.0625C41.9228 5.0625 39.6562 7.32906 39.6562 10.125C39.6562 12.9209 41.9228 15.1875 44.7188 15.1875Z" fill="#F9D869"/>
<path d="M27 15.1875C31.1875 15.1875 34.5938 11.7813 34.5938 7.59375C34.5938 3.40622 31.1875 0 27 0C22.8125 0 19.4062 3.40622 19.4062 7.59375C19.4062 11.7813 22.8125 15.1875 27 15.1875Z" fill="#F9D869"/>
<path d="M32.092 15.3445C30.629 16.3089 28.8807 16.875 27 16.875C25.1193 16.875 23.371 16.3089 21.908 15.3445C17.1408 16.1638 13.5 20.3159 13.5 25.3125V28.6875C13.5 30.5438 15.0187 32.0625 16.875 32.0625H37.125C38.9813 32.0625 40.5 30.5438 40.5 28.6875V25.3125C40.5 20.3159 36.8592 16.1638 32.092 15.3445Z" fill="#F9D869"/>
<path d="M15.7747 16.4961C15.0913 15.9975 14.3159 15.6195 13.4747 15.4043C12.3221 16.3223 10.8658 16.875 9.28125 16.875C7.69669 16.875 6.24037 16.3223 5.08781 15.4043C2.1735 16.151 0 18.7987 0 21.9375V24.4687C0 25.866 1.13316 27 2.53125 27H11.8125V25.3125C11.8125 21.8286 13.327 18.6705 15.7747 16.4961Z" fill="#F9D869"/>
<path d="M48.913 15.4043C47.7596 16.3223 46.3033 16.875 44.7187 16.875C43.1341 16.875 41.6778 16.3223 40.5244 15.4043C39.6841 15.6195 38.9078 15.9975 38.2244 16.4961C40.6729 18.6705 42.1875 21.8286 42.1875 25.3125V27H51.4687C52.866 27 54 25.866 54 24.4687V21.9375C54 18.7987 51.8265 16.151 48.913 15.4043Z" fill="#F9D869"/>
</svg>
