<svg width="48" height="48" viewBox="0 0 48 48" fill="none" xmlns="http://www.w3.org/2000/svg">
<path d="M24 0.296387C10.8 0.296387 0 10.9026 0 24.0001C0 37.0976 10.7388 47.7038 24 47.7038C37.2612 47.7038 48 37.0976 48 24.0001C48 10.9026 37.2612 0.296387 24 0.296387ZM24 8.17846C26.461 8.17846 28.5 10.1923 28.5 12.6229C28.5 15.0535 26.461 17.0673 24 17.0673C21.539 17.0673 19.5 15.0535 19.5 12.6229C19.5 10.1923 21.4805 8.17846 24 8.17846ZM24 45.2736C12.1194 45.2736 2.4612 35.7316 2.4612 23.9402C2.4612 15.7044 7.20024 8.53283 14.1612 5.03772C12.4807 7.172 11.4002 9.77846 11.4002 12.7414C11.4002 19.6167 17.0393 25.1859 24.0002 25.1859C29.6393 25.1859 34.2002 29.6905 34.2002 35.2599C34.2002 40.8294 29.5805 45.2736 24 45.2736Z" fill="#F9D869"/>
<path d="M24 30.8752C21.539 30.8752 19.5 32.8891 19.5 35.3197C19.5 37.7503 21.539 39.7641 24 39.7641C26.461 39.7641 28.5 37.7503 28.5 35.3197C28.5 32.8891 26.461 30.8752 24 30.8752Z" fill="#F9D869"/>
</svg>
