<svg width="48" height="48" viewBox="0 0 48 48" fill="none" xmlns="http://www.w3.org/2000/svg">
<g clip-path="url(#clip0_20_362)">
<path fill-rule="evenodd" clip-rule="evenodd" d="M15.7651 26.9106V47.7363H3.42171C2.70066 47.7363 2.11622 47.1519 2.11622 46.4313V26.9106H15.7651ZM29.0959 26.9106V47.7363H18.3756V26.9106H29.0959ZM45.3553 26.9106V46.4313C45.3553 47.1519 44.7713 47.7363 44.0503 47.7363H31.7069V26.9106H45.3553ZM46.167 24.9537H33.2545V16.3765H46.167C46.8876 16.3765 47.4725 16.9609 47.4725 17.6814V23.6482C47.4725 24.3687 46.8876 24.9537 46.167 24.9537ZM30.6446 24.9537H16.828V16.3765H30.6446V24.9537ZM14.2175 24.9537H1.30444C0.583912 24.9537 0 24.3693 0 23.6487V17.682C0 16.9614 0.583912 16.377 1.30444 16.377H14.2175V24.9537ZM25.1963 11.8043C26.8631 11.606 28.7341 11.3106 30.3397 10.7547C32.2233 10.1022 33.763 9.0847 34.0647 7.41261C34.1639 6.86404 34.1602 6.33868 34.0694 5.85076C33.9291 5.09542 33.5742 4.43292 33.0667 3.92654C32.5577 3.41859 31.8957 3.06465 31.143 2.92804C30.6662 2.84206 30.1477 2.84206 29.6012 2.94334C27.9397 3.25243 26.9148 4.79054 26.2539 6.67362C25.6895 8.28294 25.3899 10.1428 25.1968 11.8038L25.1963 11.8043ZM23.6039 14.5678C21.5072 14.3515 18.7258 14.0572 16.2868 13.2122C13.5872 12.2764 11.357 10.6887 10.8485 7.87204C10.6919 7.00276 10.6982 6.16408 10.8433 5.38237C11.0833 4.09217 11.6951 2.95547 12.5702 2.08197C13.4432 1.21059 14.5793 0.60294 15.8706 0.369797C16.6513 0.228435 17.4831 0.225797 18.3407 0.385094C21.1358 0.905182 22.7325 3.1269 23.6761 5.81806C23.6967 5.87661 23.7167 5.93569 23.7368 5.99476C23.7563 5.93569 23.7764 5.87661 23.7974 5.81806C24.7406 3.1269 26.3372 0.904654 29.1328 0.385094C29.9905 0.225797 30.8218 0.228962 31.6025 0.369797C32.8937 0.60294 34.0299 1.21006 34.9029 2.08197C35.7779 2.95547 36.3893 4.09217 36.6293 5.38237C36.7754 6.16461 36.7817 7.00329 36.6245 7.87204C36.1155 10.6887 33.8859 12.2764 31.1863 13.2122C28.7473 14.0572 25.9654 14.352 23.8692 14.5678V14.5667C23.8286 14.5709 23.788 14.573 23.7473 14.5736H23.7268C23.6856 14.5736 23.645 14.5709 23.6049 14.5667V14.5678H23.6039ZM17.1328 10.7547C18.7385 11.3112 20.6094 11.606 22.2762 11.8043C22.0826 10.1433 21.7825 8.28347 21.2186 6.67415C20.5588 4.79107 19.5334 3.25296 17.8718 2.94386C17.3254 2.84259 16.8069 2.84259 16.33 2.92857C15.5773 3.06465 14.9153 3.41859 14.4063 3.92707C13.8989 4.43397 13.5439 5.09595 13.4036 5.85129C13.3129 6.33868 13.3097 6.86457 13.4084 7.41314C13.7106 9.0847 15.2498 10.1022 17.1339 10.7552L17.1328 10.7547Z" fill="#F9D869"/>
</g>
<defs>
<clipPath id="clip0_20_362">
<rect width="47.4725" height="48" fill="white"/>
</clipPath>
</defs>
</svg>
