<svg width="45" height="48" viewBox="0 0 45 48" fill="none" xmlns="http://www.w3.org/2000/svg">
<g clip-path="url(#clip0_20_335)">
<path fill-rule="evenodd" clip-rule="evenodd" d="M19.0332 1.48404C20.7759 0.030059 23.2897 0.030059 25.0324 1.48404L42.3439 15.9276C43.4391 16.8414 44.0656 18.2005 44.0656 19.6253V42.8185C44.0656 45.4316 41.9828 47.6067 39.3443 47.6067H4.72131C2.08278 47.6067 0 45.4316 0 42.8185L7.87954e-06 19.6253C7.87954e-06 18.2005 0.62644 16.8414 1.72171 15.9276L19.0332 1.48404ZM18.7223 19.1895C19.1075 18.4104 18.7883 17.4664 18.0091 17.0812C17.23 16.6959 16.2861 17.0152 15.9008 17.7943L14.6403 20.3433C13.2191 23.2172 13.5574 26.6495 15.5122 29.1908C16.5396 30.5265 16.8642 32.2739 16.3848 33.8894L15.0159 38.5033C14.7687 39.3365 15.2438 40.2125 16.077 40.4597C16.9102 40.7069 17.7862 40.2318 18.0334 39.3986L19.4024 34.7847C20.1688 32.2015 19.6499 29.4074 18.007 27.2717C16.7845 25.6824 16.573 23.5358 17.4618 21.7385L18.7223 19.1895ZM28.9518 19.1895C29.337 18.4104 29.0178 17.4664 28.2386 17.0812C27.4595 16.6959 26.5156 17.0152 26.1303 17.7943L24.8698 20.3433C23.4486 23.2172 23.7869 26.6495 25.7417 29.1908C26.7691 30.5265 27.0937 32.2739 26.6143 33.8894L25.2454 38.5033C24.9982 39.3365 25.4733 40.2125 26.3065 40.4597C27.1397 40.7069 28.0157 40.2318 28.263 39.3986L29.6319 34.7847C30.3983 32.2015 29.8794 29.4074 28.2365 27.2717C27.014 25.6824 26.8025 23.5358 27.6913 21.7385L28.9518 19.1895Z" fill="#F9D869"/>
</g>
<defs>
<clipPath id="clip0_20_335">
<rect width="44.0656" height="48" fill="white"/>
</clipPath>
</defs>
</svg>
