<svg width="65" height="50" viewBox="0 0 65 50" fill="none" xmlns="http://www.w3.org/2000/svg">
<path d="M28.2333 8.17451C28.5533 7.74784 29.1933 7.64117 29.62 7.8545C30.0467 8.1745 30.1533 8.8145 29.94 9.24117C29.62 9.66784 28.98 9.7745 28.5533 9.56117C28.1267 9.24117 27.9133 8.60117 28.2333 8.17451ZM21.94 3.90784C24.6067 -0.0388275 29.94 -1.10549 33.8867 1.45451C36.4467 3.16117 37.8333 6.04117 37.7267 8.92117C37.62 10.4145 37.1933 12.0145 36.34 13.2945C35.4867 14.5745 34.3133 15.6412 33.0333 16.2812C30.3667 17.5612 27.06 17.4545 24.5 15.7478C20.34 13.2945 19.2733 7.85451 21.94 3.90784ZM27.38 11.2678C28.7667 12.2278 30.7933 11.8012 31.7533 10.4145C32.7133 9.02784 32.2867 7.00117 30.9 6.04117C29.5133 5.08117 27.4867 5.50784 26.5267 6.8945C25.5667 8.38784 25.8867 10.3078 27.38 11.2678ZM34.9533 17.6678L41.8867 22.2545C42.6333 22.7878 43.4867 22.8945 44.34 22.6812L45.4067 22.4678C45.5133 22.4678 45.5133 22.4678 45.5133 22.5745C45.5133 24.0678 47.0067 25.1345 48.5 24.7078H48.6067C48.7133 24.7078 48.9267 24.7078 48.9267 24.9212L49.14 26.7345C49.46 28.8678 51.8067 30.1478 53.7267 29.1878L55.4333 28.3345C55.9667 28.1212 56.3933 27.6945 56.7133 27.2678L57.46 26.0945C58.42 24.6012 57.9933 22.6812 56.5 21.6145L39.7533 10.3078C39.54 11.8012 39.0067 13.2945 38.0467 14.5745C37.1933 15.8545 36.1267 16.9212 34.9533 17.6678ZM0.5 26.2012V39.6412C0.5 42.7345 3.27333 45.1878 6.47333 45.1878C7.86 45.1878 9.24667 44.7612 10.3133 43.9078V21.9345C9.24667 21.1878 7.96667 20.6545 6.47333 20.6545C3.27333 20.6545 0.5 23.0012 0.5 26.2012ZM64.0733 34.8412C63.7533 34.3078 63.3267 33.7745 62.9 33.4545C62.3667 33.0278 61.8333 32.8145 61.1933 32.7078C60.5533 32.6012 60.02 32.6012 59.38 32.8145L47.6467 34.7345C47.0067 34.8412 46.58 35.1612 46.1533 35.6945L46.0467 35.8012C45.1933 36.7612 44.1267 37.5078 42.9533 38.2545C42.74 38.3612 42.5267 38.4678 42.3133 38.4678L30.26 38.2545C29.62 38.2545 29.1933 37.7212 29.1933 37.1878C29.1933 36.5478 29.7267 36.1212 30.26 36.1212L41.3533 36.3345C41.78 36.3345 42.2067 36.2278 42.5267 36.0145C43.2733 35.4812 43.9133 34.9478 44.34 34.4145C44.98 33.6678 45.3 33.0278 45.3 32.3878C45.3 32.0678 45.1933 31.4278 45.0867 30.8945C44.8733 30.3612 44.66 29.9345 44.5533 29.8278C44.02 29.2945 43.2733 28.9745 42.5267 28.9745L32.7133 28.7612C32.5 28.7612 32.3933 28.7612 32.18 28.6545H31.7533C31.4333 28.6545 31.22 28.5478 30.9 28.4412C30.6867 28.3345 30.3667 28.1212 30.1533 28.0145C27.4867 25.4545 23.9667 23.9612 20.2333 23.9612H12.4467V44.1212L24.82 48.3878C26.3133 49.1345 28.02 49.4545 29.7267 49.4545H33.8867C36.34 49.4545 38.6867 48.9212 40.82 47.9612L61.94 40.3878C62.6867 40.0678 63.22 39.5345 63.6467 38.8945C64.0733 38.2545 64.2867 37.5078 64.2867 36.7612C64.5 36.0145 64.2867 35.3745 64.0733 34.8412Z" fill="#F9D869"/>
</svg>
