<svg width="41" height="48" viewBox="0 0 41 48" fill="none" xmlns="http://www.w3.org/2000/svg">
<g clip-path="url(#clip0_31_308)">
<path d="M20.9101 6.99322C21.1434 6.73859 21.2858 6.38214 21.2858 5.98629V2.01639C21.2858 1.36359 20.8956 0.824275 20.3609 0.652957C20.2494 0.618235 20.1338 0.592773 20.012 0.592773C19.3101 0.592773 18.7444 1.22702 18.7444 2.01405V5.98394C18.7444 6.37515 18.8868 6.73162 19.1139 6.99088C19.3472 7.25245 19.6631 7.41218 20.012 7.41218C20.3609 7.41218 20.683 7.25245 20.9101 6.99088V6.99322Z" fill="#F9D869"/>
<path d="M10.0959 6.70852C10.2115 6.49556 10.2817 6.2525 10.2817 5.98627V2.01637C10.2817 1.56035 10.0856 1.15759 9.78413 0.896015C9.76348 0.877497 9.74284 0.854348 9.72013 0.835831C9.51986 0.680738 9.27625 0.592773 9.01201 0.592773C8.31007 0.592773 7.74438 1.22703 7.74438 2.01405V5.98394C7.74438 6.37515 7.88684 6.73162 8.11394 6.99088C8.34724 7.25245 8.66314 7.41218 9.01202 7.41218C9.47655 7.41218 9.87912 7.12745 10.1 6.71309L10.0959 6.70852Z" fill="#F9D869"/>
<path d="M31.0141 7.40736C31.4208 7.40736 31.7759 7.18746 32.0071 6.85644C32.1764 6.61338 32.2817 6.31014 32.2817 5.9791V2.00921C32.2817 1.37033 31.9018 0.830954 31.3774 0.652703C31.2618 0.611036 31.14 0.587891 31.012 0.587891C30.3101 0.587891 29.7444 1.22214 29.7444 2.00916V5.97906C29.7444 6.44665 29.9508 6.86102 30.2667 7.12259C30.4773 7.29388 30.7374 7.40036 31.0182 7.40036L31.0141 7.40736Z" fill="#F9D869"/>
<path d="M31.02 43.9255L38.8786 36.0698C38.8786 36.0698 38.9165 36.0243 38.9443 35.999H33.0025C31.8773 35.999 30.9443 36.9236 30.9443 38.0552V43.999C30.9443 43.999 30.9949 43.9611 31.0227 43.9333L31.02 43.9255Z" fill="#F9D869"/>
<path d="M3.99253 6.00561C3.15262 6.00561 2.39263 6.36776 1.84157 6.9546C1.29051 7.54146 0.944336 8.35083 0.944336 9.24531V13.999H38.9443V9.24531C38.9443 8.57557 38.7497 7.94944 38.4199 7.43675C37.875 6.57717 36.947 6.00779 35.8982 6.00779H34.2573V6.87826C34.2573 7.26876 34.1836 7.63747 34.0627 7.98871C33.6284 9.28457 32.4792 10.2161 31.1108 10.2161C29.7424 10.2161 28.6976 9.37187 28.2204 8.17195C28.0626 7.77053 27.9746 7.33421 27.9746 6.87172V6.00126H23.0827V6.87172C23.0827 7.33422 22.9926 7.77056 22.8369 8.17195C22.3596 9.36745 21.2431 10.2095 19.9423 10.2095C18.41 10.2095 17.1359 9.03147 16.8634 7.48472C16.8266 7.28401 16.8061 7.08331 16.8061 6.86949V5.99902H11.9142V6.86949C11.9142 7.56107 11.7155 8.20462 11.3796 8.73474C10.8142 9.62263 9.8596 10.2095 8.77384 10.2095C7.26408 10.2095 5.99399 9.05978 5.70105 7.53923C5.66008 7.32107 5.63755 7.09855 5.63755 6.86949V5.99902H3.99669L3.99253 6.00561Z" fill="#F9D869"/>
<path d="M0.944409 41.0222C0.944409 42.6639 2.30859 43.999 3.99022 43.999H27.8324C28.3158 43.999 28.791 43.9269 29.2437 43.7885V37.9753C29.2437 36.0609 30.8332 34.5054 32.7893 34.5054H38.7293C38.8665 34.0643 38.9443 33.6013 38.9443 33.1242V15.999L0.944336 16.001L0.944409 41.0222ZM30.9909 24.1998C32.736 24.1998 34.1576 25.591 34.1576 27.3049C34.1576 29.0189 32.7361 30.404 30.9909 30.404C29.2458 30.404 27.8242 29.0129 27.8242 27.3049C27.8242 25.597 29.2457 24.1998 30.9909 24.1998ZM19.9426 24.1998C21.6938 24.1998 23.1154 25.591 23.1154 27.3049C23.1154 29.0189 21.6939 30.404 19.9426 30.404C18.1913 30.404 16.7759 29.0129 16.7759 27.3049C16.7759 25.597 18.1974 24.1998 19.9426 24.1998ZM8.90003 24.1998C10.6452 24.1998 12.0667 25.591 12.0667 27.3049C12.0667 29.0189 10.6452 30.404 8.90003 30.404C7.15485 30.404 5.73336 29.0129 5.73336 27.3049C5.73336 25.597 7.15485 24.1998 8.90003 24.1998Z" fill="#F9D869"/>
</g>
<defs>
<clipPath id="clip0_31_308">
<rect width="39.1111" height="48" fill="white" transform="translate(0.944336)"/>
</clipPath>
</defs>
</svg>
