<svg width="120" height="35" viewBox="0 0 120 35" fill="none" xmlns="http://www.w3.org/2000/svg">
<g clip-path="url(#clip0_129_38)">
<path d="M106.788 6.3457V13.8113H111.267V16.051L114.627 13.8113H119.48V6.3457H106.788Z" stroke="#EA1A3C" stroke-width="0.746558"/>
<path d="M115.187 12.5982H112.388V8.95874L114.347 6.99902L114.697 7.34897C114.73 7.38163 114.757 7.42596 114.778 7.48195C114.799 7.53794 114.809 7.5916 114.809 7.64293V7.74092L114.501 8.95874H116.027C116.176 8.95874 116.307 9.01473 116.419 9.12671C116.531 9.2387 116.587 9.36934 116.587 9.51866V10.0786C116.587 10.1112 116.583 10.1462 116.576 10.1836C116.569 10.2209 116.559 10.2559 116.545 10.2885L115.705 12.2623C115.663 12.3556 115.593 12.4349 115.495 12.5002C115.397 12.5655 115.294 12.5982 115.187 12.5982ZM111.828 8.95874V12.5982H110.708V8.95874H111.828Z" fill="#EA1A3C"/>
</g>
<path d="M6.79254 29.627L2.67034 29.6167C2.69786 30.0741 2.88531 30.4697 3.23269 30.8033C3.58352 31.1369 3.99454 31.3037 4.46574 31.3037C4.78217 31.3037 5.07625 31.2332 5.34796 31.0922C5.61968 30.9512 5.81229 30.8102 5.92579 30.6691L6.10637 30.4628L6.58101 30.9374C6.56038 30.9649 6.52942 31.0045 6.48815 31.0561C6.45031 31.1042 6.36433 31.1885 6.23019 31.3089C6.09949 31.4258 5.95675 31.5307 5.80197 31.6236C5.65064 31.713 5.45287 31.7973 5.20867 31.8764C4.9679 31.9521 4.72026 31.9899 4.46574 31.9899C3.77441 31.9899 3.17938 31.7337 2.68066 31.2212C2.18194 30.7053 1.93258 30.081 1.93258 29.3484C1.93258 28.6158 2.1785 27.9932 2.67034 27.4808C3.16562 26.9648 3.74689 26.7069 4.41415 26.7069C5.10548 26.7069 5.68331 26.9476 6.14764 27.4292C6.61197 27.9073 6.84413 28.5126 6.84413 29.2452L6.79254 29.627ZM5.54917 27.8471C5.23618 27.5478 4.85784 27.3982 4.41415 27.3982C3.97046 27.3982 3.58352 27.5547 3.25333 27.8677C2.92314 28.1807 2.72881 28.5522 2.67034 28.9821H6.10637C6.05134 28.5246 5.8656 28.1463 5.54917 27.8471ZM8.85849 31.2212C8.35977 30.7053 8.11041 30.081 8.11041 29.3484C8.11041 28.6158 8.35977 27.9932 8.85849 27.4808C9.36065 26.9648 9.95568 26.7069 10.6436 26.7069C11.0391 26.7069 11.4071 26.7929 11.7476 26.9648C12.0916 27.1334 12.3375 27.3019 12.4854 27.4704L12.7073 27.7129L12.1759 28.2392C12.1621 28.2185 12.1415 28.1893 12.1139 28.1515C12.0864 28.1136 12.0245 28.0448 11.9282 27.9451C11.8353 27.8453 11.7339 27.7594 11.6238 27.6871C11.5138 27.6115 11.371 27.5444 11.1956 27.4859C11.0202 27.4275 10.8362 27.3982 10.6436 27.3982C10.1586 27.3982 9.73727 27.5874 9.37957 27.9657C9.0253 28.3406 8.84817 28.8032 8.84817 29.3536C8.84817 29.9004 9.0253 30.363 9.37957 30.7414C9.73727 31.1163 10.1586 31.3037 10.6436 31.3037C10.9394 31.3037 11.2197 31.2332 11.4845 31.0922C11.7494 30.9512 11.942 30.8102 12.0624 30.6691L12.2326 30.4628L12.7588 30.9374C12.7382 30.9649 12.7055 31.0045 12.6608 31.0561C12.6195 31.1042 12.5301 31.1885 12.3925 31.3089C12.255 31.4258 12.1105 31.5307 11.9592 31.6236C11.8078 31.713 11.6118 31.7973 11.371 31.8764C11.1337 31.9521 10.8912 31.9899 10.6436 31.9899C9.95224 31.9899 9.35721 31.7337 8.85849 31.2212ZM17.7552 30.7414C18.1198 30.363 18.3021 29.9004 18.3021 29.3536C18.3021 28.8032 18.1198 28.3406 17.7552 27.9657C17.3941 27.5874 16.959 27.3982 16.4499 27.3982C15.9443 27.3982 15.5092 27.5874 15.1447 27.9657C14.7835 28.3406 14.6029 28.8015 14.6029 29.3484C14.6029 29.8918 14.7835 30.3544 15.1447 30.7362C15.5092 31.1146 15.9443 31.3037 16.4499 31.3037C16.959 31.3037 17.3941 31.1163 17.7552 30.7414ZM14.6184 31.2263C14.1163 30.7173 13.8652 30.093 13.8652 29.3536C13.8652 28.6106 14.1163 27.9846 14.6184 27.4756C15.124 26.9631 15.7363 26.7069 16.4551 26.7069C17.1739 26.7069 17.7845 26.9631 18.2866 27.4756C18.7888 27.9846 19.0399 28.6106 19.0399 29.3536C19.0399 30.093 18.7888 30.7173 18.2866 31.2263C17.7845 31.7354 17.1739 31.9899 16.4551 31.9899C15.7363 31.9899 15.124 31.7354 14.6184 31.2263ZM27.4413 31.8867V28.8737C27.4413 28.4025 27.3244 28.0397 27.0905 27.7852C26.86 27.5272 26.5556 27.3982 26.1773 27.3982C25.7886 27.3982 25.4619 27.5513 25.197 27.8574C24.9322 28.1635 24.7998 28.5728 24.7998 29.0853V31.8867H24.062V28.8737C24.062 28.4094 23.9451 28.0483 23.7112 27.7903C23.4808 27.5289 23.1746 27.3982 22.7929 27.3982C22.4042 27.3982 22.0775 27.5513 21.8126 27.8574C21.5512 28.1635 21.4205 28.5728 21.4205 29.0853V31.8867H20.6828V26.8152H21.4205V27.4498C21.4343 27.4292 21.4515 27.4034 21.4721 27.3724C21.4927 27.338 21.5443 27.2796 21.6269 27.197C21.7129 27.111 21.8075 27.0354 21.9106 26.97C22.0138 26.9012 22.148 26.841 22.3131 26.7894C22.4782 26.7344 22.6553 26.7069 22.8445 26.7069C23.0715 26.7069 23.283 26.7396 23.479 26.8049C23.6785 26.8668 23.835 26.9408 23.9485 27.0268C24.0655 27.1093 24.1652 27.1953 24.2478 27.2847C24.3337 27.3741 24.3957 27.4498 24.4335 27.5117L24.4851 27.6097C24.4988 27.5891 24.5178 27.5582 24.5418 27.5169C24.5659 27.4722 24.6295 27.3982 24.7327 27.295C24.8359 27.1918 24.946 27.1007 25.0629 27.0216C25.1833 26.939 25.3467 26.8668 25.553 26.8049C25.7628 26.7396 25.9881 26.7069 26.2289 26.7069C26.8067 26.7069 27.2762 26.8978 27.6374 27.2796C28.0019 27.6613 28.1842 28.1927 28.1842 28.8737V31.8867H27.4413ZM36.952 31.8867V28.8737C36.952 28.4025 36.835 28.0397 36.6011 27.7852C36.3707 27.5272 36.0663 27.3982 35.688 27.3982C35.2993 27.3982 34.9726 27.5513 34.7077 27.8574C34.4429 28.1635 34.3105 28.5728 34.3105 29.0853V31.8867H33.5727V28.8737C33.5727 28.4094 33.4558 28.0483 33.2219 27.7903C32.9914 27.5289 32.6853 27.3982 32.3035 27.3982C31.9149 27.3982 31.5881 27.5513 31.3233 27.8574C31.0619 28.1635 30.9312 28.5728 30.9312 29.0853V31.8867H30.1934V26.8152H30.9312V27.4498C30.9449 27.4292 30.9621 27.4034 30.9828 27.3724C31.0034 27.338 31.055 27.2796 31.1376 27.197C31.2235 27.111 31.3181 27.0354 31.4213 26.97C31.5245 26.9012 31.6586 26.841 31.8237 26.7894C31.9888 26.7344 32.166 26.7069 32.3551 26.7069C32.5821 26.7069 32.7937 26.7396 32.9897 26.8049C33.1892 26.8668 33.3457 26.9408 33.4592 27.0268C33.5761 27.1093 33.6759 27.1953 33.7584 27.2847C33.8444 27.3741 33.9063 27.4498 33.9442 27.5117L33.9958 27.6097C34.0095 27.5891 34.0284 27.5582 34.0525 27.5169C34.0766 27.4722 34.1402 27.3982 34.2434 27.295C34.3466 27.1918 34.4566 27.1007 34.5736 27.0216C34.694 26.939 34.8573 26.8668 35.0637 26.8049C35.2735 26.7396 35.4988 26.7069 35.7396 26.7069C36.3174 26.7069 36.7869 26.8978 37.148 27.2796C37.5126 27.6613 37.6949 28.1927 37.6949 28.8737V31.8867H36.952ZM44.1926 29.627L40.0704 29.6167C40.0979 30.0741 40.2854 30.4697 40.6327 30.8033C40.9836 31.1369 41.3946 31.3037 41.8658 31.3037C42.1822 31.3037 42.4763 31.2332 42.748 31.0922C43.0197 30.9512 43.2123 30.8102 43.3258 30.6691L43.5064 30.4628L43.9811 30.9374C43.9604 30.9649 43.9295 31.0045 43.8882 31.0561C43.8504 31.1042 43.7644 31.1885 43.6302 31.3089C43.4995 31.4258 43.3568 31.5307 43.202 31.6236C43.0507 31.713 42.8529 31.7973 42.6087 31.8764C42.368 31.9521 42.1203 31.9899 41.8658 31.9899C41.1745 31.9899 40.5794 31.7337 40.0807 31.2212C39.582 30.7053 39.3326 30.081 39.3326 29.3484C39.3326 28.6158 39.5786 27.9932 40.0704 27.4808C40.5657 26.9648 41.1469 26.7069 41.8142 26.7069C42.5055 26.7069 43.0834 26.9476 43.5477 27.4292C44.012 27.9073 44.2442 28.5126 44.2442 29.2452L44.1926 29.627ZM42.9492 27.8471C42.6362 27.5478 42.2579 27.3982 41.8142 27.3982C41.3705 27.3982 40.9836 27.5547 40.6534 27.8677C40.3232 28.1807 40.1289 28.5522 40.0704 28.9821H43.5064C43.4514 28.5246 43.2657 28.1463 42.9492 27.8471ZM48.5234 26.7069V27.4498H48.2036C47.7668 27.4498 47.3936 27.6011 47.084 27.9038C46.7745 28.2065 46.6197 28.6003 46.6197 29.0853V31.8867H45.8819V26.8152H46.6197V27.5014C46.6334 27.4808 46.6541 27.4532 46.6816 27.4189C46.7091 27.381 46.7745 27.3174 46.8777 27.228C46.9808 27.1351 47.0909 27.0543 47.2078 26.9855C47.3282 26.9133 47.4864 26.8496 47.6825 26.7946C47.882 26.7361 48.0918 26.7069 48.3119 26.7069H48.5234ZM50.2179 31.2212C49.7192 30.7053 49.4698 30.081 49.4698 29.3484C49.4698 28.6158 49.7192 27.9932 50.2179 27.4808C50.7201 26.9648 51.3151 26.7069 52.003 26.7069C52.3985 26.7069 52.7666 26.7929 53.1071 26.9648C53.451 27.1334 53.6969 27.3019 53.8448 27.4704L54.0667 27.7129L53.5353 28.2392C53.5215 28.2185 53.5009 28.1893 53.4734 28.1515C53.4459 28.1136 53.3839 28.0448 53.2876 27.9451C53.1948 27.8453 53.0933 27.7594 52.9833 27.6871C52.8732 27.6115 52.7305 27.5444 52.555 27.4859C52.3796 27.4275 52.1956 27.3982 52.003 27.3982C51.518 27.3982 51.0967 27.5874 50.739 27.9657C50.3847 28.3406 50.2076 28.8032 50.2076 29.3536C50.2076 29.9004 50.3847 30.363 50.739 30.7414C51.0967 31.1163 51.518 31.3037 52.003 31.3037C52.2988 31.3037 52.5791 31.2332 52.844 31.0922C53.1088 30.9512 53.3014 30.8102 53.4218 30.6691L53.592 30.4628L54.1183 30.9374C54.0976 30.9649 54.065 31.0045 54.0203 31.0561C53.979 31.1042 53.8896 31.1885 53.752 31.3089C53.6144 31.4258 53.4699 31.5307 53.3186 31.6236C53.1673 31.713 52.9712 31.7973 52.7305 31.8764C52.4931 31.9521 52.2506 31.9899 52.003 31.9899C51.3117 31.9899 50.7166 31.7337 50.2179 31.2212ZM60.0846 29.627L55.9624 29.6167C55.9899 30.0741 56.1773 30.4697 56.5247 30.8033C56.8756 31.1369 57.2866 31.3037 57.7578 31.3037C58.0742 31.3037 58.3683 31.2332 58.64 31.0922C58.9117 30.9512 59.1043 30.8102 59.2178 30.6691L59.3984 30.4628L59.8731 30.9374C59.8524 30.9649 59.8215 31.0045 59.7802 31.0561C59.7424 31.1042 59.6564 31.1885 59.5222 31.3089C59.3915 31.4258 59.2488 31.5307 59.094 31.6236C58.9427 31.713 58.7449 31.7973 58.5007 31.8764C58.2599 31.9521 58.0123 31.9899 57.7578 31.9899C57.0664 31.9899 56.4714 31.7337 55.9727 31.2212C55.474 30.7053 55.2246 30.081 55.2246 29.3484C55.2246 28.6158 55.4705 27.9932 55.9624 27.4808C56.4577 26.9648 57.0389 26.7069 57.7062 26.7069C58.3975 26.7069 58.9754 26.9476 59.4397 27.4292C59.904 27.9073 60.1362 28.5126 60.1362 29.2452L60.0846 29.627ZM58.8412 27.8471C58.5282 27.5478 58.1499 27.3982 57.7062 27.3982C57.2625 27.3982 56.8756 27.5547 56.5454 27.8677C56.2152 28.1807 56.0208 28.5522 55.9624 28.9821H59.3984C59.3434 28.5246 59.1576 28.1463 58.8412 27.8471ZM67.5413 28.9821L69.4966 28.6622C69.4966 28.2873 69.3779 27.9829 69.1406 27.749C68.9033 27.5152 68.5989 27.3982 68.2274 27.3982C67.9592 27.3982 67.7064 27.4601 67.469 27.5839C67.2352 27.7043 67.0649 27.8281 66.9583 27.9554L66.7983 28.136L66.3237 27.6613C66.3443 27.6338 66.3719 27.5994 66.4062 27.5582C66.4441 27.5134 66.5232 27.4378 66.6436 27.3311C66.7674 27.2211 66.8964 27.1231 67.0305 27.0371C67.1647 26.9511 67.3401 26.8754 67.5567 26.8101C67.7769 26.7413 68.0004 26.7069 68.2274 26.7069C68.8053 26.7069 69.2834 26.8943 69.6617 27.2692C70.0435 27.6441 70.2344 28.1085 70.2344 28.6622V31.8867H69.4966V31.2005C69.4828 31.2212 69.4605 31.2504 69.4295 31.2883C69.402 31.3226 69.3367 31.3863 69.2335 31.4791C69.1337 31.5686 69.0254 31.6494 68.9085 31.7216C68.7915 31.7904 68.6367 31.8523 68.4441 31.9074C68.255 31.9624 68.0589 31.9899 67.856 31.9899C67.3504 31.9899 66.9239 31.8403 66.5765 31.5411C66.2326 31.2418 66.0606 30.8996 66.0606 30.5144C66.0606 30.0913 66.1878 29.7508 66.4424 29.4929C66.6969 29.2315 67.0632 29.0612 67.5413 28.9821ZM67.856 31.3037C68.3341 31.3037 68.7262 31.1472 69.0323 30.8342C69.3418 30.5213 69.4966 30.1154 69.4966 29.6167V29.2968L67.7528 29.6167C67.1199 29.7371 66.8018 30.0363 66.7983 30.5144C66.7983 30.7414 66.8912 30.9305 67.0769 31.0819C67.2661 31.2298 67.5258 31.3037 67.856 31.3037ZM75.9324 31.572V30.9374C75.9186 30.9581 75.898 30.9873 75.8705 31.0251C75.843 31.063 75.7776 31.1318 75.6744 31.2315C75.5747 31.3312 75.4646 31.419 75.3442 31.4946C75.2239 31.5668 75.0639 31.6339 74.8644 31.6958C74.6684 31.7543 74.462 31.7835 74.2453 31.7835C73.6056 31.7835 73.0484 31.5376 72.5738 31.0458C72.1026 30.5505 71.8669 29.9503 71.8669 29.2452C71.8669 28.5401 72.1026 27.9417 72.5738 27.4498C73.045 26.9545 73.6022 26.7069 74.2453 26.7069C74.462 26.7069 74.6667 26.7361 74.8593 26.7946C75.0553 26.8496 75.217 26.9201 75.3442 27.0061C75.4715 27.0887 75.5799 27.1729 75.6693 27.2589C75.7621 27.3449 75.8292 27.4154 75.8705 27.4704L75.9324 27.553V26.8152H76.6753V31.572C76.6753 32.284 76.4328 32.8842 75.9479 33.3726C75.4663 33.861 74.8799 34.1052 74.1886 34.1052C73.9203 34.1052 73.6641 34.0673 73.4199 33.9917C73.1791 33.9194 72.9813 33.8317 72.8266 33.7286C72.6718 33.6288 72.5342 33.5273 72.4138 33.4242C72.2969 33.321 72.2126 33.2315 72.161 33.1559L72.0785 33.0475L72.5531 32.5729C72.5669 32.5935 72.5892 32.6228 72.6202 32.6606C72.6546 32.7019 72.7234 32.7707 72.8266 32.867C72.9332 32.9667 73.045 33.0527 73.1619 33.1249C73.2788 33.2006 73.4302 33.2677 73.6159 33.3261C73.8016 33.388 73.9925 33.419 74.1886 33.419C74.6667 33.419 75.076 33.2419 75.4165 32.8876C75.7604 32.5333 75.9324 32.0948 75.9324 31.572ZM73.1 27.9348C72.7698 28.2925 72.6047 28.7293 72.6047 29.2452C72.6047 29.7611 72.7698 30.1979 73.1 30.5556C73.4336 30.9134 73.8154 31.0922 74.2453 31.0922C74.7028 31.0922 75.0983 30.9151 75.432 30.5608C75.7656 30.2065 75.9324 29.768 75.9324 29.2452C75.9324 28.7224 75.7656 28.2839 75.432 27.9296C75.0983 27.5753 74.7028 27.3982 74.2453 27.3982C73.8154 27.3982 73.4336 27.5771 73.1 27.9348ZM83.173 29.627L79.0508 29.6167C79.0783 30.0741 79.2658 30.4697 79.6132 30.8033C79.964 31.1369 80.375 31.3037 80.8462 31.3037C81.1627 31.3037 81.4567 31.2332 81.7284 31.0922C82.0002 30.9512 82.1928 30.8102 82.3063 30.6691L82.4868 30.4628L82.9615 30.9374C82.9409 30.9649 82.9099 31.0045 82.8686 31.0561C82.8308 31.1042 82.7448 31.1885 82.6107 31.3089C82.48 31.4258 82.3372 31.5307 82.1825 31.6236C82.0311 31.713 81.8333 31.7973 81.5891 31.8764C81.3484 31.9521 81.1007 31.9899 80.8462 31.9899C80.1549 31.9899 79.5599 31.7337 79.0611 31.2212C78.5624 30.7053 78.3131 30.081 78.3131 29.3484C78.3131 28.6158 78.559 27.9932 79.0508 27.4808C79.5461 26.9648 80.1274 26.7069 80.7946 26.7069C81.486 26.7069 82.0638 26.9476 82.5281 27.4292C82.9924 27.9073 83.2246 28.5126 83.2246 29.2452L83.173 29.627ZM81.9297 27.8471C81.6167 27.5478 81.2383 27.3982 80.7946 27.3982C80.3509 27.3982 79.964 27.5547 79.6338 27.8677C79.3036 28.1807 79.1093 28.5522 79.0508 28.9821H82.4868C82.4318 28.5246 82.2461 28.1463 81.9297 27.8471ZM85.6001 26.8152V27.553C85.6139 27.5324 85.6345 27.5031 85.662 27.4653C85.6895 27.4275 85.7549 27.3587 85.8581 27.2589C85.9613 27.1592 86.0696 27.0732 86.1831 27.001C86.3 26.9253 86.4531 26.8582 86.6423 26.7997C86.8349 26.7378 87.0327 26.7069 87.2356 26.7069C87.8478 26.7069 88.3448 26.9047 88.7266 27.3002C89.1084 27.6957 89.2993 28.2202 89.2993 28.8737V31.8867H88.5563V28.8737C88.5563 28.4301 88.4274 28.0741 88.1694 27.8058C87.9149 27.5341 87.5864 27.3982 87.184 27.3982C86.7334 27.3982 86.3568 27.5564 86.0541 27.8729C85.7515 28.1893 85.6001 28.5934 85.6001 29.0853V31.8867H84.8623V26.8152H85.6001ZM91.6851 31.2212C91.1864 30.7053 90.937 30.081 90.937 29.3484C90.937 28.6158 91.1864 27.9932 91.6851 27.4808C92.1872 26.9648 92.7823 26.7069 93.4702 26.7069C93.8657 26.7069 94.2337 26.7929 94.5742 26.9648C94.9182 27.1334 95.1641 27.3019 95.312 27.4704L95.5338 27.7129L95.0024 28.2392C94.9887 28.2185 94.968 28.1893 94.9405 28.1515C94.913 28.1136 94.8511 28.0448 94.7548 27.9451C94.6619 27.8453 94.5605 27.7594 94.4504 27.6871C94.3403 27.6115 94.1976 27.5444 94.0222 27.4859C93.8468 27.4275 93.6628 27.3982 93.4702 27.3982C92.9852 27.3982 92.5639 27.5874 92.2062 27.9657C91.8519 28.3406 91.6748 28.8032 91.6748 29.3536C91.6748 29.9004 91.8519 30.363 92.2062 30.7414C92.5639 31.1163 92.9852 31.3037 93.4702 31.3037C93.766 31.3037 94.0463 31.2332 94.3111 31.0922C94.5759 30.9512 94.7686 30.8102 94.8889 30.6691L95.0592 30.4628L95.5854 30.9374C95.5648 30.9649 95.5321 31.0045 95.4874 31.0561C95.4461 31.1042 95.3567 31.1885 95.2191 31.3089C95.0815 31.4258 94.9371 31.5307 94.7858 31.6236C94.6344 31.713 94.4384 31.7973 94.1976 31.8764C93.9603 31.9521 93.7178 31.9899 93.4702 31.9899C92.7788 31.9899 92.1838 31.7337 91.6851 31.2212ZM98.1725 32.6245L98.4356 31.8867L96.3719 26.8152H97.1664L98.807 30.9374L100.443 26.8152H101.237L98.9102 32.6245C98.7004 33.161 98.4751 33.5411 98.2344 33.7647C97.9936 33.9917 97.6909 34.1052 97.3264 34.1052C97.2128 34.1052 97.1028 34.0966 96.9962 34.0794C96.893 34.0622 96.8156 34.0433 96.764 34.0226L96.6918 34.002V33.3107C96.8672 33.3794 97.0426 33.4156 97.218 33.419C97.6651 33.419 97.9833 33.1542 98.1725 32.6245Z" fill="white"/>
<path d="M12.7914 22H2.03444V6.14652H5.43951V18.9487H12.7914V22ZM20.8287 22V20.8723C20.7402 20.9755 20.6149 21.1045 20.4528 21.2593C20.298 21.4067 19.9553 21.6057 19.4246 21.8563C18.894 22.0995 18.3412 22.2211 17.7663 22.2211C16.6608 22.2211 15.7616 21.9152 15.0688 21.3035C14.376 20.6844 14.0296 19.9363 14.0296 19.0593C14.0296 18.1527 14.3207 17.3973 14.903 16.7929C15.4852 16.1885 16.2886 15.7942 17.313 15.61L20.8287 14.9798C20.8287 14.5155 20.6591 14.1359 20.3201 13.8411C19.9811 13.5463 19.5094 13.3989 18.905 13.3989C18.4038 13.3989 17.9469 13.4947 17.5341 13.6863C17.1214 13.8706 16.8303 14.0622 16.6608 14.2612L16.4065 14.5265L14.715 12.8351C14.7592 12.7761 14.8182 12.6987 14.8919 12.6029C14.973 12.4997 15.1462 12.3265 15.4115 12.0833C15.6842 11.8401 15.979 11.6263 16.2959 11.4421C16.6129 11.2504 17.0293 11.0772 17.5452 10.9225C18.0611 10.7603 18.5881 10.6792 19.1261 10.6792C20.5265 10.6792 21.6689 11.0994 22.5533 11.9396C23.4377 12.7724 23.88 13.8227 23.88 15.0904V22H20.8287ZM18.5623 19.7336C19.2551 19.7336 19.8042 19.5162 20.2096 19.0814C20.6223 18.6392 20.8287 18.0274 20.8287 17.2462V16.9034L18.3412 17.3567C17.5084 17.4894 17.0919 17.9058 17.0919 18.606C17.0919 19.3578 17.5821 19.7336 18.5623 19.7336ZM39.8551 5.81486C40.6879 5.81486 41.4802 5.92541 42.232 6.14652C42.9837 6.36026 43.5992 6.6219 44.0782 6.93146C44.5647 7.24101 44.9921 7.55056 45.3607 7.86011C45.7365 8.16966 46.0056 8.43131 46.1677 8.64505L46.422 8.97671L44.2662 11.1325C44.2219 11.0736 44.1593 10.9925 44.0782 10.8893C44.0045 10.7787 43.8313 10.5945 43.5586 10.3365C43.2933 10.0786 43.0022 9.85377 42.6852 9.66215C42.3683 9.46315 41.9519 9.28258 41.436 9.12043C40.9201 8.95091 40.3931 8.86616 39.8551 8.86616C38.3736 8.86616 37.1354 9.36365 36.1404 10.3586C35.1454 11.3536 34.6479 12.5918 34.6479 14.0733C34.6479 15.5547 35.1454 16.7929 36.1404 17.7879C37.1354 18.7829 38.3736 19.2804 39.8551 19.2804C40.4299 19.2804 40.979 19.203 41.5023 19.0482C42.033 18.8861 42.4715 18.6981 42.8179 18.4844C43.1643 18.2633 43.4702 18.0422 43.7355 17.821C44.0008 17.5999 44.1925 17.4083 44.3104 17.2462L44.4873 17.014L46.5325 19.1698C46.4736 19.2583 46.3814 19.3762 46.2561 19.5236C46.1382 19.6636 45.8692 19.9179 45.4491 20.2864C45.0364 20.6476 44.5905 20.9682 44.1114 21.2482C43.6397 21.5209 43.0169 21.7715 42.243 22C41.4765 22.2285 40.6805 22.3427 39.8551 22.3427C37.4376 22.3427 35.396 21.5357 33.7303 19.9216C32.072 18.3001 31.2429 16.3507 31.2429 14.0733C31.2429 11.7958 32.072 9.85009 33.7303 8.236C35.396 6.6219 37.4376 5.81486 39.8551 5.81486ZM51.7396 6.14652V12.2602C51.8281 12.1422 51.9497 11.9985 52.1045 11.829C52.2666 11.6521 52.6204 11.4163 53.1658 11.1215C53.7186 10.8267 54.2971 10.6792 54.9015 10.6792C56.1692 10.6792 57.201 11.1178 57.997 11.9948C58.8004 12.8719 59.202 14.0548 59.202 15.5436V22H56.1507V15.8864C56.1507 15.2083 55.9481 14.6629 55.5427 14.2501C55.1447 13.83 54.6288 13.62 53.9949 13.62C53.3021 13.62 52.753 13.8485 52.3477 14.3054C51.9423 14.755 51.7396 15.3962 51.7396 16.2291V22H48.6773V6.14652H51.7396ZM68.2564 22V20.8723C68.168 20.9755 68.0427 21.1045 67.8806 21.2593C67.7258 21.4067 67.3831 21.6057 66.8524 21.8563C66.3217 22.0995 65.769 22.2211 65.1941 22.2211C64.0885 22.2211 63.1894 21.9152 62.4966 21.3035C61.8038 20.6844 61.4574 19.9363 61.4574 19.0593C61.4574 18.1527 61.7485 17.3973 62.3307 16.7929C62.913 16.1885 63.7163 15.7942 64.7408 15.61L68.2564 14.9798C68.2564 14.5155 68.0869 14.1359 67.7479 13.8411C67.4089 13.5463 66.9372 13.3989 66.3328 13.3989C65.8316 13.3989 65.3747 13.4947 64.9619 13.6863C64.5492 13.8706 64.2581 14.0622 64.0885 14.2612L63.8343 14.5265L62.1428 12.8351C62.187 12.7761 62.246 12.6987 62.3197 12.6029C62.4007 12.4997 62.5739 12.3265 62.8393 12.0833C63.112 11.8401 63.4068 11.6263 63.7237 11.4421C64.0406 11.2504 64.4571 11.0772 64.973 10.9225C65.4889 10.7603 66.0159 10.6792 66.5539 10.6792C67.9543 10.6792 69.0966 11.0994 69.9811 11.9396C70.8655 12.7724 71.3077 13.8227 71.3077 15.0904V22H68.2564ZM65.9901 19.7336C66.6829 19.7336 67.232 19.5162 67.6373 19.0814C68.0501 18.6392 68.2564 18.0274 68.2564 17.2462V16.9034L65.769 17.3567C64.9361 17.4894 64.5197 17.9058 64.5197 18.606C64.5197 19.3578 65.0098 19.7336 65.9901 19.7336ZM75.6193 9.66215V7.62795H78.339V11.1325H80.5943V13.8522H78.339V18.2633C78.339 18.6097 78.4643 18.9045 78.7149 19.1477C78.9728 19.3909 79.2971 19.5125 79.6877 19.5125C79.8867 19.5125 80.0784 19.4941 80.2626 19.4573C80.4543 19.413 80.598 19.3688 80.6938 19.3246L80.8265 19.2804V21.8894C80.2221 22.1179 79.5403 22.2285 78.7812 22.2211C76.4448 22.2211 75.2766 20.9387 75.2766 18.3738V13.8522H73.353V11.1325H74.3701C74.7165 11.1325 75.0113 10.9962 75.2545 10.7235C75.4977 10.4508 75.6193 10.097 75.6193 9.66215ZM84.7953 9.66215V7.62795H87.515V11.1325H89.7703V13.8522H87.515V18.2633C87.515 18.6097 87.6403 18.9045 87.8909 19.1477C88.1488 19.3909 88.4731 19.5125 88.8637 19.5125C89.0627 19.5125 89.2544 19.4941 89.4386 19.4573C89.6303 19.413 89.774 19.3688 89.8698 19.3246L90.0025 19.2804V21.8894C89.3981 22.1179 88.7163 22.2285 87.9572 22.2211C85.6208 22.2211 84.4526 20.9387 84.4526 18.3738V13.8522H82.529V11.1325H83.5461C83.8925 11.1325 84.1873 10.9962 84.4305 10.7235C84.6737 10.4508 84.7953 10.097 84.7953 9.66215ZM102.672 17.4673H94.6347C94.7526 18.0716 95.0732 18.5839 95.5965 19.004C96.1198 19.4167 96.7794 19.6231 97.5754 19.6231C98.1503 19.6231 98.681 19.5125 99.1674 19.2914C99.6612 19.0629 100.008 18.8345 100.207 18.606L100.527 18.2633L102.108 20.2975L101.909 20.4965C101.813 20.5923 101.614 20.7507 101.312 20.9718C101.01 21.193 100.689 21.392 100.35 21.5688C100.011 21.7384 99.5691 21.8894 99.0237 22.0221C98.4857 22.1548 97.9292 22.2211 97.3543 22.2211C95.7255 22.2211 94.3362 21.6573 93.1864 20.5296C92.0367 19.3946 91.4618 18.0348 91.4618 16.4502C91.4618 14.8656 92.0293 13.5094 93.1643 12.3818C94.2993 11.2468 95.6591 10.6792 97.2438 10.6792C98.8284 10.6792 100.148 11.2099 101.202 12.2712C102.256 13.3252 102.783 14.6445 102.783 16.2291L102.672 17.4673ZM98.88 13.8632C98.4377 13.48 97.8923 13.2883 97.2438 13.2883C96.5952 13.2883 96.0424 13.4763 95.5854 13.8522C95.1359 14.228 94.8189 14.7182 94.6347 15.3225H99.7312C99.6133 14.7329 99.3295 14.2465 98.88 13.8632Z" fill="white"/>
<defs>
<clipPath id="clip0_129_38">
<rect width="13.438" height="11.1984" fill="white" transform="translate(106.415 5.97266)"/>
</clipPath>
</defs>
</svg>
