<svg width="14" height="13" viewBox="0 0 14 13" fill="none" xmlns="http://www.w3.org/2000/svg">
<g clip-path="url(#clip0_129_39)">
<path d="M0.788086 1.3457V8.81128H5.26743V11.051L8.62694 8.81128H13.4796V1.3457H0.788086Z" stroke="#EA1A3C" stroke-width="0.746558"/>
<path d="M9.18711 7.59821H6.38752V3.95874L8.34723 1.99902L8.69718 2.34897C8.72984 2.38163 8.75672 2.42596 8.77781 2.48195C8.79871 2.53794 8.80917 2.5916 8.80917 2.64293V2.74092L8.50121 3.95874H10.027C10.1763 3.95874 10.3069 4.01473 10.4189 4.12671C10.5309 4.2387 10.5869 4.36934 10.5869 4.51866V5.07857C10.5869 5.11124 10.5834 5.14623 10.5763 5.18356C10.5694 5.22089 10.5589 5.25588 10.5449 5.28854L9.70504 7.26226C9.66304 7.35558 9.59305 7.4349 9.49507 7.50022C9.39708 7.56555 9.29443 7.59821 9.18711 7.59821ZM5.8276 3.95874V7.59821H4.70776V3.95874H5.8276Z" fill="#EA1A3C"/>
</g>
<defs>
<clipPath id="clip0_129_39">
<rect width="13.438" height="11.1984" fill="white" transform="translate(0.415283 0.972656)"/>
</clipPath>
</defs>
</svg>
