<svg width="55" height="62" viewBox="0 0 55 62" fill="none" xmlns="http://www.w3.org/2000/svg">
<g clip-path="url(#clip0_6_44)" filter="url(#filter0_f_6_44)">
<path d="M48.7439 57.3377C49.6733 56.3796 49.7558 54.7246 48.9313 53.6445L45.8957 49.6813C44.3517 47.6605 43.5047 45.0649 43.5047 42.3647C43.5047 40.5006 43.9169 38.6454 44.6964 37.0165L49.2386 27.5136C50.3854 25.1095 51 22.3832 51 19.6307C51 15.6501 49.7483 11.8175 47.4697 8.84732L44.4341 4.87541C43.6096 3.79533 42.1855 3.69952 41.2561 4.65765C40.3267 5.61579 40.2442 7.27075 41.0687 8.35083L44.1043 12.314C45.6483 14.3348 46.4953 16.9305 46.4953 19.6307C46.4953 21.4947 46.0831 23.35 45.3036 24.9788L40.7614 34.4818C39.6146 36.8859 39 39.6122 39 42.3647C39 46.3453 40.2517 50.1778 42.5303 53.148L45.5659 57.12C46.3904 58.2 47.8145 58.2958 48.7439 57.3377Z" fill="white" fill-opacity="0.75"/>
<path d="M31.3242 57.3377C32.2537 56.3796 32.3361 54.7246 31.5116 53.6445L28.476 49.6813C26.932 47.6605 26.085 45.0649 26.085 42.3647C26.085 40.5006 26.4972 38.6454 27.2768 37.0165L31.8189 27.5136C32.9657 25.1095 33.5803 22.3832 33.5803 19.6307C33.5803 15.6501 32.3286 11.8175 30.05 8.84732L27.0144 4.87541C26.1899 3.79533 24.7658 3.69952 23.8364 4.65765C22.907 5.61579 22.8245 7.27075 23.649 8.35083L26.6846 12.314C28.2287 14.3348 29.0756 16.9305 29.0756 19.6307C29.0756 21.4947 28.6634 23.35 27.8839 24.9788L23.3417 34.4818C22.1949 36.8859 21.5803 39.6122 21.5803 42.3647C21.5803 46.3453 22.832 50.1778 25.1106 53.148L28.1462 57.12C28.9707 58.2 30.3948 58.2958 31.3242 57.3377Z" fill="white" fill-opacity="0.75"/>
<path d="M7.69069 53.148L10.7263 57.1199C11.5508 58.2 12.9749 58.2958 13.9043 57.3377C14.8337 56.3796 14.9162 54.7246 14.0917 53.6445L11.0561 49.6813C9.51205 47.6605 8.66509 45.0649 8.66509 42.3647C8.66509 40.5006 9.07733 38.6453 9.85684 37.0165L14.399 27.5135C15.5458 25.1095 16.1604 22.3832 16.1604 19.6307C16.1604 15.6501 14.9087 11.8175 12.6301 8.84732L9.5945 4.87541C8.77002 3.79533 7.34591 3.69952 6.41649 4.65765C5.48707 5.61579 5.40463 7.27075 6.22911 8.35083L9.26471 12.314C10.8087 14.3348 11.6557 16.9305 11.6557 19.6307C11.6557 21.4947 11.2435 23.35 10.464 24.9788L5.9218 34.4818C4.77502 36.8859 4.1604 39.6122 4.1604 42.3647C4.1604 46.3453 5.41212 50.1778 7.69069 53.148Z" fill="white" fill-opacity="0.75"/>
</g>
<defs>
<filter id="filter0_f_6_44" x="0.1604" y="-0.00231934" width="54.8396" height="62" filterUnits="userSpaceOnUse" color-interpolation-filters="sRGB">
<feFlood flood-opacity="0" result="BackgroundImageFix"/>
<feBlend mode="normal" in="SourceGraphic" in2="BackgroundImageFix" result="shape"/>
<feGaussianBlur stdDeviation="2" result="effect1_foregroundBlur_6_44"/>
</filter>
<clipPath id="clip0_6_44">
<rect width="54" height="46.8395" fill="white" transform="translate(51 3.99768) rotate(90)"/>
</clipPath>
</defs>
</svg>
