<svg width="21" height="20" viewBox="0 0 21 20" fill="none" xmlns="http://www.w3.org/2000/svg">
<g clip-path="url(#clip0_31_336)">
<path fill-rule="evenodd" clip-rule="evenodd" d="M3.64111 2.92891C5.51455 1.05422 8.05986 0 10.7114 0C13.363 0 15.9083 1.05422 17.7817 2.92891C19.6567 4.80359 20.7114 7.34891 20.7114 10C20.7114 12.6511 19.6567 15.1964 17.7817 17.0711C15.9083 18.9458 13.363 20 10.7114 20C8.05986 20 5.51455 18.9458 3.64111 17.0711C1.76611 15.1964 0.711426 12.6511 0.711426 10C0.711945 7.34778 1.76574 4.80434 3.64111 2.92891ZM11.0691 7.38217C10.0973 7.7867 8.15351 8.62404 5.23788 9.89404C4.76444 10.0823 4.51601 10.2665 4.49413 10.4465C4.45566 10.7506 4.83647 10.8705 5.35392 11.0335C5.42489 11.0559 5.49843 11.079 5.57382 11.1036C6.08476 11.2695 6.77226 11.4637 7.12851 11.4714C7.45351 11.4784 7.81444 11.3448 8.21288 11.0708C10.9379 9.23217 12.3426 8.30279 12.4316 8.28279C12.4941 8.26873 12.5801 8.25092 12.6379 8.30295C12.6973 8.35482 12.691 8.45326 12.6848 8.47967C12.6479 8.64027 11.1576 10.0258 10.3821 10.7468C10.1383 10.9735 9.9652 11.1345 9.93007 11.1711C9.85158 11.2526 9.77156 11.3297 9.69467 11.4039C9.22048 11.861 8.86474 12.2039 9.71444 12.7637C10.1264 13.0351 10.4553 13.2591 10.784 13.483C11.1371 13.7235 11.4901 13.9639 11.9457 14.2628C12.0629 14.3396 12.1748 14.4193 12.2837 14.497C12.6979 14.7922 13.0699 15.0574 13.5301 15.0151C13.7973 14.9906 14.0738 14.7394 14.2129 13.99C14.5441 12.2189 15.1957 8.3817 15.3457 6.80045C15.3598 6.66201 15.3426 6.48467 15.3301 6.40686C15.316 6.32897 15.2879 6.21803 15.1879 6.136C15.0676 6.03873 14.8832 6.01826 14.8004 6.01959C14.4238 6.02639 13.8473 6.22701 11.0691 7.38217Z" fill="white"/>
</g>
<defs>
<clipPath id="clip0_31_336">
<rect width="20" height="20" fill="white" transform="translate(0.711426)"/>
</clipPath>
</defs>
</svg>
