<svg width="21" height="20" viewBox="0 0 21 20" fill="none" xmlns="http://www.w3.org/2000/svg">
<g clip-path="url(#clip0_31_330)">
<path fill-rule="evenodd" clip-rule="evenodd" d="M0.948668 9.87721C0.948126 11.6181 1.40293 13.3175 2.26758 14.8155L0.865723 19.9339L6.10378 18.5605C7.54704 19.3474 9.172 19.7622 10.8255 19.7629H10.8298C16.2753 19.7629 20.7084 15.3312 20.7107 9.88512C20.7116 7.24574 19.6846 4.7638 17.8192 2.89674C15.9535 1.02992 13.4729 0.00108527 10.8298 0C5.38324 0 0.950839 4.43101 0.948668 9.87721ZM7.80471 5.3213C7.9806 5.32851 8.17525 5.3368 8.36021 5.74789C8.48634 6.02833 8.69836 6.55067 8.86768 6.96782C8.99308 7.27675 9.09506 7.52798 9.12138 7.58052C9.183 7.70401 9.22425 7.8482 9.14184 8.013C9.12943 8.03783 9.11795 8.06126 9.10699 8.08363C9.04526 8.20962 8.99987 8.30227 8.89533 8.42471C8.85394 8.47298 8.81115 8.52501 8.76837 8.57704C8.68344 8.68032 8.59856 8.78354 8.52479 8.85711C8.40099 8.98013 8.27238 9.11393 8.41642 9.36075C8.56045 9.60796 9.05595 10.4161 9.7899 11.0705C10.5784 11.7735 11.2633 12.0708 11.6112 12.2218C11.6795 12.2514 11.7349 12.2755 11.7754 12.2958C12.0222 12.4193 12.1663 12.3987 12.3103 12.2337C12.4544 12.069 12.9272 11.5131 13.0918 11.2663C13.2565 11.019 13.4211 11.0601 13.6474 11.1425C13.8737 11.2249 15.0875 11.8221 15.3345 11.9456C15.3825 11.9697 15.4275 11.9914 15.4692 12.0115C15.6416 12.0947 15.758 12.1509 15.8077 12.2337C15.8694 12.337 15.8694 12.8311 15.6636 13.4075C15.458 13.984 14.4499 14.54 13.9972 14.5811C13.9537 14.585 13.9104 14.5901 13.866 14.5954C13.4476 14.6446 12.9197 14.7068 11.0346 13.9635C8.71565 13.049 7.18657 10.783 6.87028 10.3143C6.84429 10.2758 6.82649 10.2494 6.81711 10.2369L6.81444 10.2333C6.68155 10.0557 5.80905 8.88969 5.80905 7.68339C5.80905 6.54654 6.36779 5.95057 6.62495 5.67627C6.64255 5.65749 6.65874 5.64023 6.67324 5.6244C6.89936 5.3775 7.16688 5.31556 7.33153 5.31556C7.34227 5.31556 7.35301 5.31556 7.36375 5.31556C7.51744 5.31553 7.67008 5.3155 7.80471 5.3213Z" fill="white"/>
</g>
<defs>
<clipPath id="clip0_31_330">
<rect width="19.846" height="20" fill="white" transform="translate(0.865479)"/>
</clipPath>
</defs>
</svg>
